<svg width="32" height="32" viewBox="0 0 32 32" fill="none" xmlns="http://www.w3.org/2000/svg">
<path d="M19.9998 2.66669L20.7181 5.85545C21.3274 8.56022 23.4396 10.6724 26.1444 11.2817L29.3332 12L26.1444 12.7183C23.4396 13.3276 21.3274 15.4398 20.7181 18.1446L19.9998 21.3334L19.2816 18.1446C18.6722 15.4398 16.5601 13.3276 13.8553 12.7183L10.6665 12L13.8553 11.2817C16.56 10.6724 18.6722 8.56022 19.2816 5.85546L19.9998 2.66669Z" stroke="black" stroke-width="3" stroke-linejoin="round"/>
<path d="M9.33317 16L9.84625 18.2777C10.2815 20.2096 11.7902 21.7184 13.7221 22.1536L15.9998 22.6667L13.7221 23.1797C11.7902 23.6149 10.2815 25.1236 9.84625 27.0556L9.33317 29.3333L8.82009 27.0556C8.38489 25.1236 6.87617 23.6149 4.9442 23.1797L2.6665 22.6667L4.9442 22.1536C6.87617 21.7184 8.38489 20.2097 8.82009 18.2777L9.33317 16Z" stroke="black" stroke-width="3" stroke-linejoin="round"/>
</svg>
